<?xml version="1.0" encoding="utf-8"?>
<!-- Generator: Adobe Illustrator 24.1.2, SVG Export Plug-In . SVG Version: 6.00 Build 0)  -->
<svg version="1.1" id="Layer_1" xmlns="http://www.w3.org/2000/svg" xmlns:xlink="http://www.w3.org/1999/xlink" x="0px" y="0px"
	 viewBox="0 0 1978 813" style="enable-background:new 0 0 1978 813;" xml:space="preserve">
<style type="text/css">
	.st0{fill:#494848;}
	.st1{fill:#4B494A;}
	.st2{fill:#57BFBF;}
</style>
<g>
	<g>
		<path class="st0" d="M35.18,538.44V692.9H23V364.11h107.03c34.63,0,61.27,7.5,79.95,22.47c18.66,14.98,28,36.84,28,65.6
			c0,18.52-5.91,35.35-17.73,50.47c-11.81,15.13-27.96,24.95-48.44,29.47c23.64,4.06,40.57,12.73,50.81,25.97
			c10.23,13.25,15.36,30.18,15.36,50.8l-0.07,23.45c0,10.24,0,2.63,0,22.86c0,10.64,0,13.09,0,22v13.18h-12.09
			c0-10.4,0-11.78,0-21.28c0-19.12,0-18.34,0-29.63l-0.05-30.13c0-22.28-7.64-39.66-22.91-52.16
			c-15.29-12.5-37.07-18.75-65.38-18.75H35.18z M35.18,526.24h92.6c33.56,0,58.29-7.08,74.18-21.23
			c15.88-14.15,23.82-31.77,23.82-52.84c0-24.54-8.01-43.32-24.05-56.33c-16.03-13.03-39.93-19.54-71.7-19.54H35.18V526.24z"/>
	</g>
	<g>
		<path class="st0" d="M359.76,697.41c-28.76,0-53.03-11.14-72.83-33.42c-19.79-22.28-29.7-50.35-29.7-84.23v-14.45
			c0-35.38,9.83-64.47,29.48-87.28c19.64-22.81,44.37-34.21,74.18-34.21c27.1,0,48.7,8.92,64.81,26.76
			c16.1,17.84,24.16,42.19,24.16,73.05v18.74H269.43v2.94v14.45c0,29.81,8.42,54.84,25.29,75.08
			c16.85,20.25,38.53,30.37,65.04,30.37c14.59,0,28.63-2.71,42.11-8.13c13.47-5.42,24.42-12.65,32.86-21.68l6.54,9.48
			c-8.58,9.48-19.65,17.28-33.2,23.37C394.53,694.37,378.42,697.41,359.76,697.41z M360.88,456.02c-25.29,0-46.03,8.77-62.22,26.31
			c-16.18,17.54-25.33,39.7-27.43,66.5l0.67,1.35h165.75v-7.45c0-25.14-6.85-45.88-20.55-62.22
			C403.41,464.19,384.67,456.02,360.88,456.02z"/>
	</g>
	<g>
		<path class="st0" d="M476.69,570.28c0-38.69,8.13-69.44,24.39-92.24c16.26-22.81,38.84-34.21,67.75-34.21
			c18.97,0,35.42,4.29,49.34,12.87c13.93,8.58,25.03,20.32,33.31,35.23l1.81-43.58h10.39v75.19c0,0.3,0,0.53,0,0.68
			c0,0.15,0.07,0.22,0.23,0.22v99.59c-0.16,0.3-0.23,0.52-0.23,0.67c0,0.15,0,0.3,0,0.45v68.88c0,31.01-8.17,54.99-24.5,71.92
			c-16.34,16.94-38.96,25.4-67.87,25.4c-11.89,0-24.27-1.23-37.14-3.72c-12.87-2.48-24.13-5.91-33.75-10.28l3.61-12.19
			c10.98,4.82,21.6,8.39,31.84,10.73c10.24,2.33,21.9,3.5,35.01,3.5c26.34,0,46.33-7.34,59.95-22.02
			c13.63-14.67,20.44-35.79,20.44-63.34v-38.62c-8.29,12.95-19.46,23.18-33.54,30.71c-14.07,7.53-30.52,11.29-49.34,11.29
			c-28.75,0-51.23-10.99-67.4-32.97c-16.19-21.98-24.28-51.79-24.28-89.42V570.28z M489.11,575.02c0,33.72,6.7,60.52,20.1,80.39
			c13.4,19.87,33.04,29.81,58.94,29.81c20.92,0,38.38-4.7,52.39-14.11c13.99-9.4,24.23-22.02,30.71-37.83V516.31
			c-6.03-17.01-15.55-31.31-28.57-42.91c-13.02-11.59-31.04-17.38-54.09-17.38c-25.89,0-45.61,10.58-59.15,31.72
			c-13.55,21.16-20.33,48.67-20.33,82.54V575.02z"/>
	</g>
	<g>
		<path class="st1" d="M1419.13,401.02v61.97h99.02v11.68h-99.02v158.78c0,18.82,3.39,32.23,10.16,40.23
			c6.78,8,15.74,11.99,26.88,11.99c4.06,0,7.68-0.14,10.84-0.42c3.16-0.29,7.53-0.78,13.1-1.5l2.26,10.41
			c-3.76,1.12-7.68,1.91-11.74,2.33c-4.06,0.43-8.66,0.64-13.77,0.64c-16.42,0-28.87-5.02-37.38-15.07
			c-8.51-10.05-12.77-26.25-12.77-48.61V474.68h-45.16v-11.68h45.16v-61.97H1419.13z"/>
	</g>
	<g>
		<path class="st1" d="M1611.84,697.13c-28.76,0-53.03-10.47-72.83-31.41c-19.79-20.95-29.7-47.34-29.7-79.18v-13.59
			c0-33.25,9.83-60.6,29.48-82.04c19.64-21.44,44.37-32.17,74.18-32.17c27.1,0,48.7,8.39,64.81,25.16
			c16.1,16.77,24.16,39.65,24.16,68.67v17.61h-180.42v2.76v13.59c0,28.02,8.42,51.55,25.29,70.58
			c16.85,19.04,38.53,28.55,65.04,28.55c14.59,0,28.63-2.55,42.11-7.65c13.47-5.09,24.42-11.88,32.86-20.37l6.54,8.91
			c-8.58,8.92-19.65,16.24-33.2,21.97C1646.6,694.26,1630.5,697.13,1611.84,697.13z M1612.96,470.22
			c-25.29,0-46.03,8.24-62.22,24.73c-16.18,16.48-25.33,37.33-27.43,62.51l0.67,1.27h165.75v-7.01c0-23.63-6.85-43.13-20.55-58.48
			C1655.49,477.9,1636.75,470.22,1612.96,470.22z"/>
	</g>
	<g>
		<path class="st1" d="M1744.92,692.68h-12.2V361.54h12.2V692.68z"/>
	</g>
	<g>
		<path class="st1" d="M1943.71,636.42c0-12.16-5.54-23.24-16.6-33.22c-11.07-9.98-30.37-17.79-57.93-23.46
			c-29.06-5.8-50.09-13.27-63.11-22.39c-13.03-9.13-19.53-22.68-19.53-40.66c0-16.41,7.37-30.17,22.12-41.28
			c14.75-11.11,34.63-16.67,59.62-16.67c26.95,0,48.17,5.95,63.69,17.83c15.5,11.88,22.87,27.38,22.12,46.49l-0.44,1.27h-10.4
			c0-15-6.73-27.77-20.2-38.32c-13.48-10.54-31.72-15.81-54.77-15.81c-22.88,0-40.19,4.64-51.93,13.9
			c-11.74,9.27-17.62,19.99-17.62,32.16c0,12.03,4.98,22.29,14.91,30.78c9.94,8.49,29.65,15.92,59.15,22.29
			c27.25,5.94,47.91,14.04,61.99,24.3c14.07,10.27,21.11,24.59,21.11,42.99c0,17.98-7.83,32.55-23.49,43.73
			c-15.66,11.18-36.43,16.77-62.33,16.77c-28.44,0-50.76-5.98-66.95-17.93c-16.18-11.96-23.75-26.5-22.69-43.63l0.45-1.26h9.94
			c1.2,18.12,9.48,31.2,24.84,39.26c15.36,8.07,33.49,12.1,54.42,12.1c22.58,0,40.5-4.96,53.75-14.86
			C1937.08,660.91,1943.71,649.44,1943.71,636.42z"/>
	</g>
	<g>
		<path class="st0" d="M704.62,371.56h-12.2V340.4h12.2V371.56z M704.62,692.68h-12.2V448.34h12.2V692.68z"/>
	</g>
	<g>
		<g>
			<path class="st2" d="M1044.59,791.35c-85.44,0-152.61-23.95-201.51-71.84c-48.9-47.89-73.34-112.89-73.34-195
				c0-84.77,25.36-151.11,76.1-199c50.73-47.89,119.32-71.84,205.76-71.84c85.11,0,151.86,23.95,200.25,71.84
				c48.39,47.9,72.59,111.23,72.59,189.99c0,85.11-24.95,152.36-74.84,201.76C1199.7,766.66,1131.37,791.35,1044.59,791.35z
				 M1228.33,185.09h-103.63l-79.1-94.12L972,185.09H868.37L986.02,22.38h124.16L1228.33,185.09z M1048.6,374.83
				c-37.38,0-66.42,12.85-87.11,38.55c-20.7,25.7-31.04,62.08-31.04,109.14c0,98.46,39.72,147.69,119.15,147.69
				c75.76,0,113.64-50.56,113.64-151.69C1163.24,422.72,1125.02,374.83,1048.6,374.83z"/>
		</g>
	</g>
</g>
</svg>
